# xmcd
#
# Track frame offsets:
#	150
#	11920
#	28195
#	43516
#	63989
#	76571
#	91375
#	110486
#	124884
#	135224
#	148795
#	159272
#	180496
#	196283
#
# Disc length: 2947 seconds
# Revision: 0
# Processed by: cddbd v1.5.2PL0 Copyright (c) Steve Scherf et al.
# Submitted via: dBpowerAMP V12.0
#
DISCID=b00b810e
DTITLE=Clay Swafford - Rooster
DYEAR=2013
DGENRE=Blues
TTITLE0=Rooster's Boogie
TTITLE1=29 Ways
TTITLE2=Olympia Strut
TTITLE3=Sometimes I Have a Heartache
TTITLE4=Messin' Around Davenport
TTITLE5=Hole In the Wall
TTITLE6=Birmingham After Midnight
TTITLE7=You Better Watch Yourself
TTITLE8=Big Joe's Stomp
TTITLE9=Rock This House
TTITLE10=Amazing Grace
TTITLE11=Mean Disposition
TTITLE12=Fine Little Mama
TTITLE13=Tin Pan Alley
EXTD=
EXTT0=
EXTT1=
EXTT2=
EXTT3=
EXTT4=
EXTT5=
EXTT6=
EXTT7=
EXTT8=
EXTT9=
EXTT10=
EXTT11=
EXTT12=
EXTT13=
PLAYORDER=
